<svg width="1512" height="3196" viewBox="0 0 1512 3196" fill="none" xmlns="http://www.w3.org/2000/svg">
<path d="M739.256 161.425C874.931 3.26703 1038.41 152.375 1212.87 68.923C1443 -41.1533 1492.83 -269.161 1714 -404V3182.74C1714 3182.74 1230.21 3258.91 1141.36 3046.13C1052.5 2833.36 862.787 2378.4 862.787 2378.4C862.787 2378.4 749.519 2159.63 635.731 2086.2C422.865 1948.82 291.645 2256.5 27.0785 2203.2C-237.488 2149.91 -182.307 1954.49 -287 1842.38V1004.35C-170.349 801.792 -31.0076 750.862 166.613 697.445C345.674 649.045 490.107 858.443 635.731 721.949C781.241 585.561 606.53 316.146 739.256 161.425Z" fill="#D8EEF4" fill-opacity="0.3"/>
</svg>
