<?xml version="1.0" standalone="no"?>
<!DOCTYPE svg PUBLIC "-//W3C//DTD SVG 20010904//EN"
 "http://www.w3.org/TR/2001/REC-SVG-20010904/DTD/svg10.dtd">
<svg version="1.0" xmlns="http://www.w3.org/2000/svg"
 width="101.000000pt" height="101.000000pt" viewBox="0 0 101.000000 101.000000"
 preserveAspectRatio="xMidYMid meet">
<metadata>
Created by potrace 1.14, written by Peter Selinger 2001-2017
</metadata>
<g transform="translate(0.000000,101.000000) scale(0.100000,-0.100000)"
fill="#000000" stroke="none">
<path d="M663 846 c-5 -8 -27 -23 -50 -35 -49 -24 -57 -34 -48 -61 8 -24 22
-25 47 -3 26 23 24 8 -16 -132 -105 -369 -109 -387 -91 -404 12 -12 36 -16
103 -16 75 0 94 4 139 27 61 33 97 76 114 139 11 41 10 50 -10 92 -12 25 -33
53 -46 61 l-25 16 42 38 c44 39 88 120 88 162 0 43 -34 86 -82 103 -61 22
-156 29 -165 13z m157 -56 c39 -39 17 -139 -48 -207 -23 -26 -38 -33 -67 -33
-20 0 -45 -5 -56 -10 -11 -6 -19 -7 -19 -1 0 12 70 253 76 263 3 5 25 8 50 8
31 0 50 -6 64 -20z m-40 -312 c11 -18 20 -48 20 -66 0 -58 -53 -137 -114 -169
-28 -15 -109 -23 -120 -12 -5 5 21 142 45 231 8 33 12 36 28 26 13 -8 28 -7
62 5 59 21 57 21 79 -15z"/>
<path d="M303 833 c-7 -2 -13 -16 -13 -30 0 -18 4 -23 18 -19 9 2 37 8 61 11
42 7 44 6 39 -16 -26 -119 -115 -435 -135 -476 -55 -118 -143 -124 -143 -9 0
26 7 60 15 75 17 34 70 81 91 81 19 0 18 35 -2 54 -21 22 -28 20 -68 -15 -49
-42 -87 -124 -88 -188 -1 -44 3 -56 27 -81 15 -16 41 -32 57 -35 38 -9 109 26
143 71 53 70 70 122 140 425 l26 117 40 -5 c34 -5 39 -3 39 15 0 12 -9 22 -22
26 -27 7 -208 7 -225 -1z"/>
</g>
</svg>
